<svg xmlns="http://www.w3.org/2000/svg" data-v-fde0c5aa="" class="iconLeft" viewBox="0 0 300 300"><!----><defs data-v-fde0c5aa=""><!----></defs><rect data-v-fde0c5aa="" fill="transparent" x="0" y="0" width="300px" height="300px" class="logo-background-square"/><defs data-v-fde0c5aa=""><!----></defs><g data-v-fde0c5aa="" id="952ee9a8-cc2b-4750-b187-5252e550327b" fill="#B48EAE" transform="matrix(2.107728367118686,0,0,2.107728367118686,89.14753918448609,121.01873595716128)"><path d="M0.49 17.18L1.02 8.43L4.54 8.43L5.63 12.88L5.73 12.88L6.82 8.43L10.33 8.43L10.86 17.18L8.08 17.18L7.85 12.94L7.76 12.94L6.75 17.18L4.61 17.18L3.58 12.94L3.50 12.94L3.28 17.18L0.49 17.18ZM15.41 9.97L15.41 9.97Q17.08 9.97 17.86 10.56L17.86 10.56L17.86 10.56Q18.63 11.14 18.63 12.42L18.63 12.42L18.63 17.18L17.23 17.18L16.53 16.48L16.53 16.48Q16.00 16.93 15.39 17.16L15.39 17.16L15.39 17.16Q14.78 17.39 14.15 17.39L14.15 17.39L14.15 17.39Q12.88 17.39 12.29 16.81L12.29 16.81L12.29 16.81Q11.70 16.24 11.70 15.01L11.70 15.01L11.70 15.01Q11.70 14.15 12.07 13.65L12.07 13.65L12.07 13.65Q12.43 13.15 13.24 12.92L13.24 12.92L13.24 12.92Q14.04 12.70 15.41 12.70L15.41 12.70L15.83 12.70L15.83 12.07L15.83 12.07Q15.62 12.01 15.13 12.01L15.13 12.01L15.13 12.01Q13.83 12.01 12.36 12.38L12.36 12.38L12.03 10.44L12.03 10.44Q13.59 9.97 15.41 9.97L15.41 9.97ZM14.87 15.50L14.87 15.50Q15.41 15.50 15.62 15.39L15.62 15.39L15.62 15.39Q15.83 15.27 15.83 14.97L15.83 14.97L15.83 14.10L15.25 14.10L15.25 14.10Q14.70 14.10 14.49 14.22L14.49 14.22L14.49 14.22Q14.28 14.35 14.28 14.69L14.28 14.69L14.28 15.50L14.87 15.50ZM19.96 17.18L19.96 10.18L21.36 10.18L22.06 10.88L22.06 10.88Q23.30 9.97 24.86 9.97L24.86 9.97L24.86 9.97Q25.84 9.97 26.40 10.39L26.40 10.39L26.40 10.39Q26.96 10.82 26.96 11.58L26.96 11.58L26.96 17.18L24.16 17.18L24.16 12.28L23.31 12.28L23.31 12.28Q23.02 12.28 22.89 12.37L22.89 12.37L22.89 12.37Q22.76 12.46 22.76 12.67L22.76 12.67L22.76 17.18L19.96 17.18ZM32.00 15.50L32.00 15.50Q33.07 15.65 33.64 15.88L33.64 15.88L33.64 15.88Q34.20 16.10 34.45 16.47L34.45 16.47L34.45 16.47Q34.69 16.84 34.69 17.46L34.69 17.46L34.69 17.46Q34.69 18.58 33.91 19.10L33.91 19.10L33.91 19.10Q33.14 19.63 31.47 19.63L31.47 19.63L31.47 19.63Q29.69 19.63 28.08 19.15L28.08 19.15L28.42 17.22L28.42 17.22Q29.71 17.58 30.91 17.58L30.91 17.58L30.91 17.58Q31.47 17.58 32.17 17.51L32.17 17.51L32.17 17.01L32.17 17.01Q30.86 16.91 30.29 16.75L30.29 16.75L30.29 16.75Q29.72 16.59 29.72 16.32L29.72 16.32L30.13 15.09L30.13 15.09Q29.01 14.91 28.48 14.29L28.48 14.29L28.48 14.29Q27.94 13.68 27.94 12.57L27.94 12.57L27.94 12.57Q27.94 11.23 28.74 10.60L28.74 10.60L28.74 10.60Q29.54 9.97 31.26 9.97L31.26 9.97L31.26 9.97Q31.98 9.97 32.61 10.08L32.61 10.08L33.87 9.11L35.20 10.39L34.41 11.41L34.41 11.41Q34.61 11.86 34.61 12.57L34.61 12.57L34.61 12.57Q34.61 13.78 33.99 14.40L33.99 14.40L33.99 14.40Q33.38 15.02 32.03 15.15L32.03 15.15L32.00 15.50ZM30.60 11.84L30.60 13.75L31.47 13.75L31.47 13.75Q31.74 13.75 31.84 13.64L31.84 13.64L31.84 13.64Q31.95 13.54 31.95 13.30L31.95 13.30L31.95 11.40L31.05 11.40L31.05 11.40Q30.80 11.40 30.70 11.49L30.70 11.49L30.70 11.49Q30.60 11.58 30.60 11.84L30.60 11.84ZM39.33 9.97L39.33 9.97Q40.99 9.97 41.77 10.56L41.77 10.56L41.77 10.56Q42.55 11.14 42.55 12.42L42.55 12.42L42.55 17.18L41.15 17.18L40.45 16.48L40.45 16.48Q39.91 16.93 39.31 17.16L39.31 17.16L39.31 17.16Q38.70 17.39 38.07 17.39L38.07 17.39L38.07 17.39Q36.79 17.39 36.20 16.81L36.20 16.81L36.20 16.81Q35.62 16.24 35.62 15.01L35.62 15.01L35.62 15.01Q35.62 14.15 35.98 13.65L35.98 13.65L35.98 13.65Q36.34 13.15 37.15 12.92L37.15 12.92L37.15 12.92Q37.95 12.70 39.33 12.70L39.33 12.70L39.75 12.70L39.75 12.07L39.75 12.07Q39.54 12.01 39.05 12.01L39.05 12.01L39.05 12.01Q37.74 12.01 36.27 12.38L36.27 12.38L35.94 10.44L35.94 10.44Q37.51 9.97 39.33 9.97L39.33 9.97ZM38.78 15.50L38.78 15.50Q39.33 15.50 39.54 15.39L39.54 15.39L39.54 15.39Q39.75 15.27 39.75 14.97L39.75 14.97L39.75 14.10L39.16 14.10L39.16 14.10Q38.61 14.10 38.40 14.22L38.40 14.22L38.40 14.22Q38.19 14.35 38.19 14.69L38.19 14.69L38.19 15.50L38.78 15.50ZM48.01 10.74L48.01 17.18L45.21 17.18L45.21 10.74L43.25 10.74L43.25 8.43L49.97 8.43L49.97 10.74L48.01 10.74ZM53.47 17.39L53.47 17.39Q51.56 17.39 50.66 16.48L50.66 16.48L50.66 16.48Q49.76 15.58 49.76 13.68L49.76 13.68L49.76 13.68Q49.76 11.76 50.65 10.86L50.65 10.86L50.65 10.86Q51.55 9.97 53.47 9.97L53.47 9.97L53.47 9.97Q55.38 9.97 56.28 10.86L56.28 10.86L56.28 10.86Q57.18 11.76 57.18 13.68L57.18 13.68L57.18 13.68Q57.18 15.60 56.28 16.49L56.28 16.49L56.28 16.49Q55.38 17.39 53.47 17.39L53.47 17.39ZM52.77 15.29L53.62 15.29L53.62 15.29Q53.93 15.29 54.05 15.20L54.05 15.20L54.05 15.20Q54.17 15.12 54.17 14.90L54.17 14.90L54.17 12.07L53.31 12.07L53.31 12.07Q53.00 12.07 52.88 12.15L52.88 12.15L52.88 12.15Q52.77 12.24 52.77 12.46L52.77 12.46L52.77 15.29ZM58.04 12.33L58.04 12.33Q58.04 11.12 58.80 10.54L58.80 10.54L58.80 10.54Q59.56 9.97 61.17 9.97L61.17 9.97L61.17 9.97Q62.78 9.97 64.19 10.28L64.19 10.28L63.87 12.21L63.87 12.21Q63.20 12.03 62.23 12.03L62.23 12.03L62.23 12.03Q61.50 12.03 61.05 12.17L61.05 12.17L61.05 12.67L61.05 12.67Q62.36 12.81 63.11 13.08L63.11 13.08L63.11 13.08Q63.87 13.34 64.20 13.80L64.20 13.80L64.20 13.80Q64.54 14.27 64.54 14.99L64.54 14.99L64.54 14.99Q64.54 16.24 63.69 16.81L63.69 16.81L63.69 16.81Q62.85 17.39 61.01 17.39L61.01 17.39L61.01 17.39Q60.20 17.39 59.38 17.26L59.38 17.26L59.38 17.26Q58.56 17.14 57.95 16.91L57.95 16.91L58.30 14.90L58.30 14.90Q59.29 15.33 60.54 15.33L60.54 15.33L60.54 15.33Q60.89 15.33 61.53 15.22L61.53 15.22L61.53 14.67L61.53 14.67Q60.14 14.53 59.40 14.29L59.40 14.29L59.40 14.29Q58.66 14.04 58.35 13.59L58.35 13.59L58.35 13.59Q58.04 13.13 58.04 12.33L58.04 12.33ZM65.59 17.18L65.59 8.08L68.33 7.87L68.33 10.43L68.33 10.43Q69.22 9.97 70.49 9.97L70.49 9.97L70.49 9.97Q71.47 9.97 72.03 10.39L72.03 10.39L72.03 10.39Q72.59 10.82 72.59 11.58L72.59 11.58L72.59 17.18L69.79 17.18L69.79 12.28L69.36 12.28L69.36 12.28Q68.81 12.28 68.60 12.40L68.60 12.40L68.60 12.40Q68.39 12.53 68.39 12.87L68.39 12.87L68.39 17.18L65.59 17.18ZM77.35 17.39L77.35 17.39Q75.45 17.39 74.54 16.48L74.54 16.48L74.54 16.48Q73.64 15.58 73.64 13.68L73.64 13.68L73.64 13.68Q73.64 11.76 74.54 10.86L74.54 10.86L74.54 10.86Q75.43 9.97 77.35 9.97L77.35 9.97L77.35 9.97Q79.27 9.97 80.16 10.86L80.16 10.86L80.16 10.86Q81.06 11.76 81.06 13.68L81.06 13.68L81.06 13.68Q81.06 15.60 80.16 16.49L80.16 16.49L80.16 16.49Q79.27 17.39 77.35 17.39L77.35 17.39ZM76.65 15.29L77.50 15.29L77.50 15.29Q77.81 15.29 77.93 15.20L77.93 15.20L77.93 15.20Q78.05 15.12 78.05 14.90L78.05 14.90L78.05 12.07L77.20 12.07L77.20 12.07Q76.89 12.07 76.77 12.15L76.77 12.15L76.77 12.15Q76.65 12.24 76.65 12.46L76.65 12.46L76.65 15.29Z"/></g><defs data-v-fde0c5aa=""><!----></defs><g data-v-fde0c5aa="" id="bf67fa12-167d-4e9c-b053-1926a3ede4ab" stroke="none" fill="#646E68" transform="matrix(1.1618851907648473,0,0,1.1618851907648473,40,131.4156453986234)"><path d="M31 .995v30H1v-30h30m1-1H0v32h32v-32z"/><path d="M16 7.045L24.955 16 16 24.955 7.045 16 16 7.045m0-1.414L5.631 16 16 26.369 26.369 16 16 5.631z"/><path d="M16 12.538L19.462 16 16 19.462 12.538 16 16 12.538m0-1.414L11.124 16 16 20.876 20.876 16 16 11.124z"/></g><!----></svg>